/* XPM */
static char *dummy[]={
"16 34 5 1",
"# c #000000",
". c #0000ff",
"c c #666666",
"b c #999999",
"a c #ff0000",
"...##aaaaa##....",
"...###aaa###....",
"...a###a###a....",
"...aa#####aa....",
"...aaa###aaa....",
"...aa#####aa....",
"...a###a###a....",
"...###aaa###....",
"...##aaaaa##....",
"................",
"................",
"................",
"................",
"................",
"................",
"................",
"bbbbbbbbbbbbbbbb",
"..###########...",
"..#cccccccbb#...",
"..#ccccccbbb#...",
"..#ccc###bbb#...",
"..#cc#c#b#bb#...",
"..#ccc###bbb#...",
"..#cc#b#b#bb#...",
"..#cbb#b#bbb#...",
"..#cb#b#b#bb#...",
"..#bbbbbbbbb#...",
"..###########...",
"................",
"................",
"................",
"................",
"................",
"bbbbbbbbbbbbbbbb"};
