/* XPM */
static char *dummy[]={
"16 34 6 1",
"a c #000000",
". c #0000ff",
"d c #666666",
"# c #999999",
"c c #cccccc",
"b c #ffffff",
".#aaaaaaaaaaa...",
".#abcccccccca...",
".#ac####ccc#a...",
".#ac###cccc#a...",
".#ac##caccc#a...",
".#ac#caaacc#a...",
".#accaaaaab#a...",
".#accccccbb#a...",
".#acccccbbb#a...",
".#ac########a...",
".#aaaaaaaaaaa...",
"................",
"................",
"................",
"................",
"................",
"################",
".#aaaaaaaaaaa...",
".#addddddd##a...",
".#adddddd###a...",
".#addddd####a...",
".#adddda####a...",
".#adddaaa###a...",
".#addaaaaa##a...",
".#ad########a...",
".#ad########a...",
".#a#########a...",
".#aaaaaaaaaaa...",
"................",
"................",
"................",
"................",
"................",
"################"};
