/* XPM */
static char *dummy[]={
"16 34 6 1",
"# c #000000",
". c #0000ff",
"d c #666666",
"a c #999999",
"b c #cccccc",
"c c #ffffff",
"...#########....",
"...#aaaabbb#....",
"...#aaabbbb#....",
"...#a#####b#....",
"...#ab###bb#....",
"...#bbb#bbc#....",
"...#bbbbbcc#....",
"...#bbbbccc#....",
"...#########....",
"................",
"................",
"................",
"................",
"................",
"................",
"................",
"aaaaaaaaaaaaaaaa",
"ba###########bbb",
"ba#dddddddaa#bbb",
"ba#ddddddaaa#bbb",
"ba#dddddaaaa#bbb",
"ba#dd#####aa#bbb",
"ba#ddd###aaa#bbb",
"ba#ddda#aaaa#bbb",
"ba#daaaaaaaa#bbb",
"ba#daaaaaaaa#bbb",
"ba#aaaaaaaaa#bbb",
"ba###########bbb",
"bbbbbbbbbbbbbbbb",
"bbbbbbbbbbbbbbbb",
"bbbbbbbbbbbbbbbb",
"bbbbbbbbbbbbbbbb",
"bbbbbbbbbbbbbbbb",
"aaaaaaaaaaaaaaaa"};
