/* XPM */
static char *dummy[]={
"16 34 5 1",
"# c #000000",
". c #0000ff",
"c c #666666",
"b c #999999",
"a c #ffff00",
"..###########...",
"..#aaaaaaaaa#...",
"..#aaaaaaaaa#...",
"..#aaaaaaaaa#...",
"..#aaaaaaaaa#...",
"..#aaaaaaaaa#...",
"..#aaaaaaaaa#...",
"..#aaaaaaaaa#...",
"..#aaaaaaaaa#...",
"..#aaaaaaaaa#...",
"..###########...",
"................",
"................",
"................",
"................",
"................",
"bbbbbbbbbbbbbbbb",
"..###########...",
"..#cccccccbb#...",
"..#ccccccbbb#...",
"..#cc#####bb#...",
"..#cc#ccb#bb#...",
"..#cc#cbb#bb#...",
"..#cc##bb#bb#...",
"..#cb#####bb#...",
"..#cbbbbbbbb#...",
"..#bbbbbbbbb#...",
"..###########...",
"................",
"................",
"................",
"................",
"................",
"bbbbbbbbbbbbbbbb"};
