/* XPM */
static char *dummy[]={
"16 34 7 1",
"c c #000000",
". c #0000ff",
"e c #666666",
"a c #999999",
"b c #cccccc",
"# c #ff0000",
"d c #ffffff",
"...#########....",
"...#aaaabbb#....",
"...#acccccb#....",
"...#acbbbcb#....",
"...#acccbcb#....",
"...#bcbcbcd#....",
"...#bcccccd#....",
"...#bbbbddd#....",
"...#########....",
"................",
"................",
"................",
"................",
"................",
"................",
"................",
"aaaaaaaaaaaaaaaa",
"..ccccccccccc...",
"..ceeeeeeeaac...",
"..ceeeeeeaaac...",
"..ceecccccaac...",
"..ceeceeacaac...",
"..ceeceaacaac...",
"..ceeccaacaac...",
"..ceacccccaac...",
"..ceaaaaaaaac...",
"..caaaaaaaaac...",
"..ccccccccccc...",
"................",
"................",
"................",
"................",
"................",
"aaaaaaaaaaaaaaaa"};
